<svg xmlns="http://www.w3.org/2000/svg" version="1.1" xmlns:xlink="http://www.w3.org/1999/xlink"
    xmlns:svgjs="http://svgjs.dev/svgjs" width="1440" height="560" preserveAspectRatio="none"
    viewBox="0 0 1440 560">
    <defs>
        <filter id="blurFilter" x="0" y="0" width="100%" height="100%">
            <feGaussianBlur in="SourceGraphic" stdDeviation="1" />
        </filter>
    </defs>
    <g mask="url(&quot;#SvgjsMask1012&quot;)" fill="none" filter="url(#blurFilter)">
        <rect width="1440" height="560" x="0" y="0" fill="rgba(252, 253, 248, 1)"></rect>
        <use xlink:href="#SvgjsG1015" transform="translate(0, 0)" fill="rgba(187, 241, 200, 1)"></use>
        <use xlink:href="#SvgjsG1015" transform="translate(805, 0)" fill="rgba(187, 241, 200, 1)"></use>
    </g>
    <defs>
        <mask id="SvgjsMask1012">
            <rect width="1440" height="560" fill="#ffffff"></rect>
        </mask>
        <g id="SvgjsG1014">
            <path
                d="M7.926 0C3.552-0.003 0.004 3.58 0 7.996 0.004 12.419 3.552 16.002 7.926 16c4.377 0.002 7.924-3.581 7.927-8.004C15.85 3.58 12.303-0.003 7.926 0z m0 14.157c-3.366 0-6.095-2.757-6.091-6.161C1.831 4.598 4.56 1.842 7.926 1.843c3.368-0.001 6.098 2.756 6.102 6.153C14.024 11.4 11.294 14.157 7.927 14.157z"></path>
            <path
                d="M7.104 10.825l1.792-0.008V9.432c-0.004-0.376 0.171-0.732 0.64-1.038 0.47-0.309 1.781-0.933 1.783-2.579-0.002-1.639-1.378-2.768-2.536-3.011-1.156-0.236-2.409-0.078-3.297 0.9-0.798 0.868-0.966 1.559-0.969 3.08h1.791v-0.354c-0.004-0.81 0.09-1.666 1.246-1.904 0.636-0.124 1.229 0.074 1.584 0.416 0.4 0.396 0.403 1.282-0.242 1.721l-1.004 0.684c-0.585 0.379-0.786 0.797-0.788 1.41v2.068z m-0.008 2.536V11.526h1.808v1.835z"></path>
        </g>
        <g id="SvgjsG1013">
            <path
                d="M7.713 15.485C3.459 15.485 0 12.025 0 7.768 0 3.513 3.459 0.051 7.713 0.051S15.432 3.513 15.432 7.768c0 4.257-3.465 7.716-7.719 7.717z m0-1.91c3.201 0 5.81-2.604 5.81-5.809 0-3.199-2.61-5.807-5.81-5.807-3.202 0-5.804 2.609-5.804 5.807-0.001 3.206 2.602 5.809 5.804 5.809z"></path>
            <path
                d="M7.753 8.787a0.574 0.574 0 0 1-0.554-0.042 0.578 0.578 0 0 1-0.259-0.399L6.931 3.862a0.58 0.58 0 0 1 1.162 0v3.478l2.975-1.4a0.578 0.578 0 0 1 0.773 0.275c0.138 0.292 0.011 0.637-0.276 0.774l-3.81 1.798z"></path>
        </g>
        <g id="SvgjsG1015">
            <use xlink:href="#SvgjsG1013" transform="translate(0, 0) scale(2.3)"
                fill="rgba(187, 241, 200, 1)"></use>
            <use xlink:href="#SvgjsG1013" transform="translate(0, 80.5) scale(2.3)"
                fill="rgba(187, 241, 200, 1)"></use>
            <use xlink:href="#SvgjsG1013" transform="translate(0, 161) scale(2.3)"
                fill="rgba(187, 241, 200, 1)"></use>
            <use xlink:href="#SvgjsG1013" transform="translate(0, 241.5) scale(2.3)"
                fill="rgba(187, 241, 200, 1)"></use>
            <use xlink:href="#SvgjsG1013" transform="translate(0, 322) scale(2.3)"
                fill="rgba(187, 241, 200, 1)"></use>
            <use xlink:href="#SvgjsG1013" transform="translate(0, 402.5) scale(2.3)"
                fill="rgba(187, 241, 200, 1)"></use>
            <use xlink:href="#SvgjsG1013" transform="translate(0, 483) scale(2.3)"
                fill="rgba(187, 241, 200, 1)"></use>
            <use xlink:href="#SvgjsG1014" transform="translate(80.5, 0) scale(2.3)"
                fill="rgba(187, 241, 200, 1)"></use>
            <use xlink:href="#SvgjsG1014" transform="translate(80.5, 80.5) scale(2.3)"
                fill="rgba(187, 241, 200, 1)"></use>
            <use xlink:href="#SvgjsG1014" transform="translate(80.5, 161) scale(2.3)"
                fill="rgba(187, 241, 200, 1)"></use>
            <use xlink:href="#SvgjsG1013" transform="translate(80.5, 241.5) scale(2.3)"
                fill="rgba(187, 241, 200, 1)"></use>
            <use xlink:href="#SvgjsG1013" transform="translate(80.5, 322) scale(2.3)"
                fill="rgba(187, 241, 200, 1)"></use>
            <use xlink:href="#SvgjsG1013" transform="translate(80.5, 402.5) scale(2.3)"
                fill="rgba(187, 241, 200, 1)"></use>
            <use xlink:href="#SvgjsG1013" transform="translate(80.5, 483) scale(2.3)"
                fill="rgba(187, 241, 200, 1)"></use>
            <use xlink:href="#SvgjsG1014" transform="translate(161, 0) scale(2.3)"
                fill="rgba(187, 241, 200, 1)"></use>
            <use xlink:href="#SvgjsG1014" transform="translate(161, 80.5) scale(2.3)"
                fill="rgba(187, 241, 200, 1)"></use>
            <use xlink:href="#SvgjsG1014" transform="translate(161, 161) scale(2.3)"
                fill="rgba(187, 241, 200, 1)"></use>
            <use xlink:href="#SvgjsG1014" transform="translate(161, 241.5) scale(2.3)"
                fill="rgba(187, 241, 200, 1)"></use>
            <use xlink:href="#SvgjsG1014" transform="translate(161, 322) scale(2.3)"
                fill="rgba(187, 241, 200, 1)"></use>
            <use xlink:href="#SvgjsG1014" transform="translate(161, 402.5) scale(2.3)"
                fill="rgba(187, 241, 200, 1)"></use>
            <use xlink:href="#SvgjsG1013" transform="translate(161, 483) scale(2.3)"
                fill="rgba(187, 241, 200, 1)"></use>
            <use xlink:href="#SvgjsG1013" transform="translate(241.5, 0) scale(2.3)"
                fill="rgba(187, 241, 200, 1)"></use>
            <use xlink:href="#SvgjsG1013" transform="translate(241.5, 80.5) scale(2.3)"
                fill="rgba(187, 241, 200, 1)"></use>
            <use xlink:href="#SvgjsG1013" transform="translate(241.5, 161) scale(2.3)"
                fill="rgba(187, 241, 200, 1)"></use>
            <use xlink:href="#SvgjsG1013" transform="translate(241.5, 241.5) scale(2.3)"
                fill="rgba(187, 241, 200, 1)"></use>
            <use xlink:href="#SvgjsG1013" transform="translate(241.5, 322) scale(2.3)"
                fill="rgba(187, 241, 200, 1)"></use>
            <use xlink:href="#SvgjsG1013" transform="translate(241.5, 402.5) scale(2.3)"
                fill="rgba(187, 241, 200, 1)"></use>
            <use xlink:href="#SvgjsG1014" transform="translate(241.5, 483) scale(2.3)"
                fill="rgba(187, 241, 200, 1)"></use>
            <use xlink:href="#SvgjsG1013" transform="translate(322, 0) scale(2.3)"
                fill="rgba(187, 241, 200, 1)"></use>
            <use xlink:href="#SvgjsG1013" transform="translate(322, 80.5) scale(2.3)"
                fill="rgba(187, 241, 200, 1)"></use>
            <use xlink:href="#SvgjsG1013" transform="translate(322, 161) scale(2.3)"
                fill="rgba(187, 241, 200, 1)"></use>
            <use xlink:href="#SvgjsG1014" transform="translate(322, 241.5) scale(2.3)"
                fill="rgba(187, 241, 200, 1)"></use>
            <use xlink:href="#SvgjsG1014" transform="translate(322, 322) scale(2.3)"
                fill="rgba(187, 241, 200, 1)"></use>
            <use xlink:href="#SvgjsG1013" transform="translate(322, 402.5) scale(2.3)"
                fill="rgba(187, 241, 200, 1)"></use>
            <use xlink:href="#SvgjsG1014" transform="translate(322, 483) scale(2.3)"
                fill="rgba(187, 241, 200, 1)"></use>
            <use xlink:href="#SvgjsG1014" transform="translate(402.5, 0) scale(2.3)"
                fill="rgba(187, 241, 200, 1)"></use>
            <use xlink:href="#SvgjsG1014" transform="translate(402.5, 80.5) scale(2.3)"
                fill="rgba(187, 241, 200, 1)"></use>
            <use xlink:href="#SvgjsG1013" transform="translate(402.5, 161) scale(2.3)"
                fill="rgba(187, 241, 200, 1)"></use>
            <use xlink:href="#SvgjsG1013" transform="translate(402.5, 241.5) scale(2.3)"
                fill="rgba(187, 241, 200, 1)"></use>
            <use xlink:href="#SvgjsG1013" transform="translate(402.5, 322) scale(2.3)"
                fill="rgba(187, 241, 200, 1)"></use>
            <use xlink:href="#SvgjsG1014" transform="translate(402.5, 402.5) scale(2.3)"
                fill="rgba(187, 241, 200, 1)"></use>
            <use xlink:href="#SvgjsG1013" transform="translate(402.5, 483) scale(2.3)"
                fill="rgba(187, 241, 200, 1)"></use>
            <use xlink:href="#SvgjsG1013" transform="translate(483, 0) scale(2.3)"
                fill="rgba(187, 241, 200, 1)"></use>
            <use xlink:href="#SvgjsG1014" transform="translate(483, 80.5) scale(2.3)"
                fill="rgba(187, 241, 200, 1)"></use>
            <use xlink:href="#SvgjsG1013" transform="translate(483, 161) scale(2.3)"
                fill="rgba(187, 241, 200, 1)"></use>
            <use xlink:href="#SvgjsG1014" transform="translate(483, 241.5) scale(2.3)"
                fill="rgba(187, 241, 200, 1)"></use>
            <use xlink:href="#SvgjsG1014" transform="translate(483, 322) scale(2.3)"
                fill="rgba(187, 241, 200, 1)"></use>
            <use xlink:href="#SvgjsG1013" transform="translate(483, 402.5) scale(2.3)"
                fill="rgba(187, 241, 200, 1)"></use>
            <use xlink:href="#SvgjsG1013" transform="translate(483, 483) scale(2.3)"
                fill="rgba(187, 241, 200, 1)"></use>
            <use xlink:href="#SvgjsG1013" transform="translate(563.5, 0) scale(2.3)"
                fill="rgba(187, 241, 200, 1)"></use>
            <use xlink:href="#SvgjsG1014" transform="translate(563.5, 80.5) scale(2.3)"
                fill="rgba(187, 241, 200, 1)"></use>
            <use xlink:href="#SvgjsG1013" transform="translate(563.5, 161) scale(2.3)"
                fill="rgba(187, 241, 200, 1)"></use>
            <use xlink:href="#SvgjsG1014" transform="translate(563.5, 241.5) scale(2.3)"
                fill="rgba(187, 241, 200, 1)"></use>
            <use xlink:href="#SvgjsG1013" transform="translate(563.5, 322) scale(2.3)"
                fill="rgba(187, 241, 200, 1)"></use>
            <use xlink:href="#SvgjsG1014" transform="translate(563.5, 402.5) scale(2.3)"
                fill="rgba(187, 241, 200, 1)"></use>
            <use xlink:href="#SvgjsG1013" transform="translate(563.5, 483) scale(2.3)"
                fill="rgba(187, 241, 200, 1)"></use>
            <use xlink:href="#SvgjsG1013" transform="translate(644, 0) scale(2.3)"
                fill="rgba(187, 241, 200, 1)"></use>
            <use xlink:href="#SvgjsG1013" transform="translate(644, 80.5) scale(2.3)"
                fill="rgba(187, 241, 200, 1)"></use>
            <use xlink:href="#SvgjsG1013" transform="translate(644, 161) scale(2.3)"
                fill="rgba(187, 241, 200, 1)"></use>
            <use xlink:href="#SvgjsG1014" transform="translate(644, 241.5) scale(2.3)"
                fill="rgba(187, 241, 200, 1)"></use>
            <use xlink:href="#SvgjsG1014" transform="translate(644, 322) scale(2.3)"
                fill="rgba(187, 241, 200, 1)"></use>
            <use xlink:href="#SvgjsG1013" transform="translate(644, 402.5) scale(2.3)"
                fill="rgba(187, 241, 200, 1)"></use>
            <use xlink:href="#SvgjsG1014" transform="translate(644, 483) scale(2.3)"
                fill="rgba(187, 241, 200, 1)"></use>
            <use xlink:href="#SvgjsG1013" transform="translate(724.5, 0) scale(2.3)"
                fill="rgba(187, 241, 200, 1)"></use>
            <use xlink:href="#SvgjsG1014" transform="translate(724.5, 80.5) scale(2.3)"
                fill="rgba(187, 241, 200, 1)"></use>
            <use xlink:href="#SvgjsG1014" transform="translate(724.5, 161) scale(2.3)"
                fill="rgba(187, 241, 200, 1)"></use>
            <use xlink:href="#SvgjsG1013" transform="translate(724.5, 241.5) scale(2.3)"
                fill="rgba(187, 241, 200, 1)"></use>
            <use xlink:href="#SvgjsG1014" transform="translate(724.5, 322) scale(2.3)"
                fill="rgba(187, 241, 200, 1)"></use>
            <use xlink:href="#SvgjsG1013" transform="translate(724.5, 402.5) scale(2.3)"
                fill="rgba(187, 241, 200, 1)"></use>
            <use xlink:href="#SvgjsG1014" transform="translate(724.5, 483) scale(2.3)"
                fill="rgba(187, 241, 200, 1)"></use>
        </g>
    </defs>
</svg>